<svg xmlns="http://www.w3.org/2000/svg" width="1200" height="750" viewBox="0 0 1200 750" role="img" aria-label="K-MER Events">
  <defs>
    <linearGradient id="bg" x1="0" y1="0" x2="1" y2="1">
      <stop offset="0" stop-color="#0b1124"/>
      <stop offset="1" stop-color="#070b18"/>
    </linearGradient>
    <radialGradient id="glow" cx="0.3" cy="0.25" r="0.8">
      <stop offset="0" stop-color="#00ffd5" stop-opacity="0.16"/>
      <stop offset="1" stop-color="#00ffd5" stop-opacity="0"/>
    </radialGradient>
  </defs>
  <rect width="1200" height="750" fill="url(#bg)"/>
  <rect width="1200" height="750" fill="url(#glow)"/>
  <g fill="none" stroke="#00ffd5" stroke-opacity="0.85" stroke-width="6" stroke-linecap="round" stroke-linejoin="round">
    <path d="M520 300h160a16 16 0 0 1 16 16v34a26 26 0 0 0 0 50v34a16 16 0 0 1-16 16H520a16 16 0 0 1-16-16v-34a26 26 0 0 0 0-50v-34a16 16 0 0 1 16-16Z"/>
    <path d="M600 300v150" stroke-dasharray="2 22"/>
  </g>
  <text x="600" y="520" text-anchor="middle" font-family="Inter, system-ui, sans-serif" font-size="40" font-weight="700" fill="#e7ecff">K-MER Events</text>
  <text x="600" y="566" text-anchor="middle" font-family="Inter, system-ui, sans-serif" font-size="24" fill="#7e8aa6">Visuel à venir</text>
</svg>
